<svg width="31" height="11" viewBox="0 0 31 11" fill="none" xmlns="http://www.w3.org/2000/svg">
<path d="M5.5 2.24438L5.50003 1.74438H5.5V2.24438ZM9 5.74438L9.5 5.74438L9.5 5.74435L9 5.74438ZM5.5 9.24438L5.5 9.74438L5.50003 9.74438L5.5 9.24438ZM2 5.74438L1.5 5.74435V5.74438H2ZM19 5.74438L19.5 5.74438L19.5 5.74435L19 5.74438ZM12 5.74438L11.5 5.74435V5.74438H12ZM29 5.74438L29.5 5.74438L29.5 5.74435L29 5.74438ZM22 5.74438L21.5 5.74435V5.74438H22ZM5.5 2.24438L5.49997 2.74438C7.15665 2.7445 8.49989 4.08773 8.5 5.74442L9 5.74438L9.5 5.74435C9.49985 3.53543 7.70895 1.74454 5.50003 1.74438L5.5 2.24438ZM9 5.74438H8.5C8.5 7.40112 7.15677 8.74427 5.49997 8.74438L5.5 9.24438L5.50003 9.74438C7.709 9.74423 9.5 7.95348 9.5 5.74438H9ZM5.5 9.24438V8.74438C3.84315 8.74438 2.5 7.40124 2.5 5.74438H2H1.5C1.5 7.95352 3.29086 9.74438 5.5 9.74438V9.24438ZM2 5.74438L2.5 5.74442C2.50011 4.08762 3.84326 2.74438 5.5 2.74438V2.24438V1.74438C3.29091 1.74438 1.50015 3.53538 1.5 5.74435L2 5.74438ZM15.5 2.24438V2.74438C17.1567 2.74438 18.4999 4.08762 18.5 5.74442L19 5.74438L19.5 5.74435C19.4998 3.53538 17.7091 1.74438 15.5 1.74438V2.24438ZM19 5.74438H18.5C18.5 7.40124 17.1569 8.74438 15.5 8.74438V9.24438V9.74438C17.7091 9.74438 19.5 7.95352 19.5 5.74438H19ZM15.5 9.24438V8.74438C13.8431 8.74438 12.5 7.40124 12.5 5.74438H12H11.5C11.5 7.95352 13.2909 9.74438 15.5 9.74438V9.24438ZM12 5.74438L12.5 5.74442C12.5001 4.08762 13.8433 2.74438 15.5 2.74438V2.24438V1.74438C13.2909 1.74438 11.5002 3.53538 11.5 5.74435L12 5.74438ZM25.5 2.24438V2.74438C27.1567 2.74438 28.4999 4.08762 28.5 5.74442L29 5.74438L29.5 5.74435C29.4998 3.53538 27.7091 1.74438 25.5 1.74438V2.24438ZM29 5.74438H28.5C28.5 7.40124 27.1569 8.74438 25.5 8.74438V9.24438V9.74438C27.7091 9.74438 29.5 7.95352 29.5 5.74438H29ZM25.5 9.24438V8.74438C23.8431 8.74438 22.5 7.40124 22.5 5.74438H22H21.5C21.5 7.95352 23.2909 9.74438 25.5 9.74438V9.24438ZM22 5.74438L22.5 5.74442C22.5001 4.08762 23.8433 2.74438 25.5 2.74438V2.24438V1.74438C23.2909 1.74438 21.5002 3.53538 21.5 5.74435L22 5.74438Z" fill="#C8C8C8"/>
</svg>
