<svg width="107" height="107" viewBox="0 0 107 107" fill="none" xmlns="http://www.w3.org/2000/svg">
<path d="M12.0293 54.1846C13.428 52.1956 16.1741 51.7175 18.1631 53.1162L23.415 56.8096C25.2216 58.0804 25.6562 60.575 24.3857 62.3818C23.9107 63.0572 23.2644 63.5407 22.547 63.815C21.9244 64.0532 21.4545 64.7117 21.688 65.3361C26.4413 78.0463 38.6996 87.0965 53.0664 87.0967C68.2568 87.0967 81.0953 76.9802 85.1914 63.1084C85.817 60.9899 88.0416 59.7799 90.1602 60.4053C92.2787 61.031 93.4889 63.2554 92.8633 65.374C87.7905 82.5533 71.8986 95.0967 53.0664 95.0967C34.6418 95.0965 19.0295 83.0899 13.6133 66.4746C13.4248 65.8965 12.7719 65.6104 12.1699 65.6962C11.1981 65.8345 10.1739 65.6179 9.30762 65.0088C7.50078 63.738 7.06629 61.2435 8.33691 59.4365L12.0293 54.1846ZM53.0674 12.1152C71.4956 12.1155 87.1108 24.1274 92.5241 40.7478C92.7156 41.3356 93.3864 41.621 93.9969 41.5241C94.9884 41.3667 96.0398 41.5802 96.9258 42.2031C98.7327 43.4738 99.1679 45.9684 97.8975 47.7754L94.2041 53.0273C92.8053 55.0162 90.0593 55.4944 88.0703 54.0957L82.8193 50.4023C81.0124 49.1315 80.5779 46.6371 81.8486 44.8301C82.31 44.1742 82.9325 43.6991 83.6249 43.4207C84.2337 43.1759 84.6862 42.5268 84.457 41.912C79.7135 29.1831 67.4476 20.1155 53.0674 20.1152C37.8085 20.1152 24.923 30.3234 20.8877 44.291C20.2746 46.4133 18.0569 47.6374 15.9346 47.0244C13.8123 46.4113 12.5892 44.1935 13.2021 42.0713C18.1997 24.7724 34.1504 12.1152 53.0674 12.1152Z" fill="white"/>
</svg>
