<svg width="31" height="20" viewBox="0 0 31 20" fill="none" xmlns="http://www.w3.org/2000/svg">
<path d="M8.74121 15.0544L9.24121 15.0544L9.24121 15.0544L8.74121 15.0544ZM1.74121 15.0544L1.24121 15.0544V15.0544H1.74121ZM18.7412 15.0544L19.2412 15.0544L19.2412 15.0544L18.7412 15.0544ZM11.7412 15.0544L11.2412 15.0544V15.0544H11.7412ZM28.7412 15.0544L29.2412 15.0544L29.2412 15.0544L28.7412 15.0544ZM21.7412 15.0544L21.2412 15.0544V15.0544H21.7412ZM5.24121 1.55444L5.24125 1.05444H5.24121V1.55444ZM8.74121 5.05444L9.24121 5.05444L9.24121 5.05441L8.74121 5.05444ZM5.24121 8.55444L5.24121 9.05444L5.24125 9.05444L5.24121 8.55444ZM1.74121 5.05444L1.24121 5.05441V5.05444H1.74121ZM18.7412 5.05444L19.2412 5.05444L19.2412 5.05441L18.7412 5.05444ZM11.7412 5.05444L11.2412 5.05441V5.05444H11.7412ZM28.7412 5.05444L29.2412 5.05444L29.2412 5.05441L28.7412 5.05444ZM21.7412 5.05444L21.2412 5.05441V5.05444H21.7412ZM5.24121 11.5544V12.0544C6.89795 12.0544 8.2411 13.3977 8.24121 15.0545L8.74121 15.0544L9.24121 15.0544C9.24106 12.8454 7.4503 11.0544 5.24121 11.0544V11.5544ZM8.74121 15.0544H8.24121C8.24121 16.7113 6.89807 18.0544 5.24121 18.0544V18.5544V19.0544C7.45035 19.0544 9.24121 17.2636 9.24121 15.0544H8.74121ZM5.24121 18.5544V18.0544C3.58436 18.0544 2.24121 16.7113 2.24121 15.0544H1.74121H1.24121C1.24121 17.2636 3.03207 19.0544 5.24121 19.0544V18.5544ZM1.74121 15.0544L2.24121 15.0545C2.24132 13.3977 3.58447 12.0544 5.24121 12.0544V11.5544V11.0544C3.03212 11.0544 1.24136 12.8454 1.24121 15.0544L1.74121 15.0544ZM15.2412 11.5544V12.0544C16.8979 12.0544 18.2411 13.3977 18.2412 15.0545L18.7412 15.0544L19.2412 15.0544C19.2411 12.8454 17.4503 11.0544 15.2412 11.0544V11.5544ZM18.7412 15.0544H18.2412C18.2412 16.7113 16.8981 18.0544 15.2412 18.0544V18.5544V19.0544C17.4503 19.0544 19.2412 17.2636 19.2412 15.0544H18.7412ZM15.2412 18.5544V18.0544C13.5844 18.0544 12.2412 16.7113 12.2412 15.0544H11.7412H11.2412C11.2412 17.2636 13.0321 19.0544 15.2412 19.0544V18.5544ZM11.7412 15.0544L12.2412 15.0545C12.2413 13.3977 13.5845 12.0544 15.2412 12.0544V11.5544V11.0544C13.0321 11.0544 11.2414 12.8454 11.2412 15.0544L11.7412 15.0544ZM25.2412 11.5544V12.0544C26.8979 12.0544 28.2411 13.3977 28.2412 15.0545L28.7412 15.0544L29.2412 15.0544C29.2411 12.8454 27.4503 11.0544 25.2412 11.0544V11.5544ZM28.7412 15.0544H28.2412C28.2412 16.7113 26.8981 18.0544 25.2412 18.0544V18.5544V19.0544C27.4503 19.0544 29.2412 17.2636 29.2412 15.0544H28.7412ZM25.2412 18.5544V18.0544C23.5844 18.0544 22.2412 16.7113 22.2412 15.0544H21.7412H21.2412C21.2412 17.2636 23.0321 19.0544 25.2412 19.0544V18.5544ZM21.7412 15.0544L22.2412 15.0545C22.2413 13.3977 23.5845 12.0544 25.2412 12.0544V11.5544V11.0544C23.0321 11.0544 21.2414 12.8454 21.2412 15.0544L21.7412 15.0544ZM5.24121 1.55444L5.24118 2.05444C6.89786 2.05456 8.2411 3.39779 8.24121 5.05448L8.74121 5.05444L9.24121 5.05441C9.24106 2.84549 7.45016 1.05459 5.24125 1.05444L5.24121 1.55444ZM8.74121 5.05444H8.24121C8.24121 6.71118 6.89798 8.05433 5.24118 8.05444L5.24121 8.55444L5.24125 9.05444C7.45021 9.05429 9.24121 7.26353 9.24121 5.05444H8.74121ZM5.24121 8.55444V8.05444C3.58436 8.05444 2.24121 6.7113 2.24121 5.05444H1.74121H1.24121C1.24121 7.26358 3.03207 9.05444 5.24121 9.05444V8.55444ZM1.74121 5.05444L2.24121 5.05448C2.24132 3.39767 3.58447 2.05444 5.24121 2.05444V1.55444V1.05444C3.03212 1.05444 1.24136 2.84544 1.24121 5.05441L1.74121 5.05444ZM15.2412 1.55444V2.05444C16.8979 2.05444 18.2411 3.39767 18.2412 5.05448L18.7412 5.05444L19.2412 5.05441C19.2411 2.84544 17.4503 1.05444 15.2412 1.05444V1.55444ZM18.7412 5.05444H18.2412C18.2412 6.7113 16.8981 8.05444 15.2412 8.05444V8.55444V9.05444C17.4503 9.05444 19.2412 7.26358 19.2412 5.05444H18.7412ZM15.2412 8.55444V8.05444C13.5844 8.05444 12.2412 6.7113 12.2412 5.05444H11.7412H11.2412C11.2412 7.26358 13.0321 9.05444 15.2412 9.05444V8.55444ZM11.7412 5.05444L12.2412 5.05448C12.2413 3.39767 13.5845 2.05444 15.2412 2.05444V1.55444V1.05444C13.0321 1.05444 11.2414 2.84544 11.2412 5.05441L11.7412 5.05444ZM25.2412 1.55444V2.05444C26.8979 2.05444 28.2411 3.39767 28.2412 5.05448L28.7412 5.05444L29.2412 5.05441C29.2411 2.84544 27.4503 1.05444 25.2412 1.05444V1.55444ZM28.7412 5.05444H28.2412C28.2412 6.7113 26.8981 8.05444 25.2412 8.05444V8.55444V9.05444C27.4503 9.05444 29.2412 7.26358 29.2412 5.05444H28.7412ZM25.2412 8.55444V8.05444C23.5844 8.05444 22.2412 6.7113 22.2412 5.05444H21.7412H21.2412C21.2412 7.26358 23.0321 9.05444 25.2412 9.05444V8.55444ZM21.7412 5.05444L22.2412 5.05448C22.2413 3.39767 23.5845 2.05444 25.2412 2.05444V1.55444V1.05444C23.0321 1.05444 21.2414 2.84544 21.2412 5.05441L21.7412 5.05444Z" fill="#C8C8C8"/>
</svg>
